<svg width="20" height="22" viewBox="0 0 20 22" fill="none" xmlns="http://www.w3.org/2000/svg">
<path d="M15 21H17C17.5304 21 18.0391 20.7893 18.4142 20.4142C18.7893 20.0391 19 19.5304 19 19V6L14 1H5C4.46957 1 3.96086 1.21071 3.58579 1.58579C3.21071 1.96086 3 2.46957 3 3V6M13 1V5C13 5.53043 13.2107 6.03914 13.5858 6.41421C13.9609 6.78929 14.4696 7 15 7H19M8.5 16.5L7 15.25V13M13 15C13 18.3137 10.3137 21 7 21C3.68629 21 1 18.3137 1 15C1 11.6863 3.68629 9 7 9C10.3137 9 13 11.6863 13 15Z" stroke="#EEEBFF" stroke-linecap="round" stroke-linejoin="round"/>
</svg>
