<svg width="27" height="27" viewBox="0 0 27 27" fill="none" xmlns="http://www.w3.org/2000/svg">
<path d="M11.1009 22.9732C11.1008 23.2079 11.1628 23.438 11.28 23.6377C11.3973 23.8374 11.5651 23.9987 11.7646 24.1037L14.1649 25.3668C14.3479 25.463 14.5513 25.5084 14.7557 25.4987C14.9601 25.489 15.1587 25.4244 15.3327 25.3111C15.5067 25.1978 15.6503 25.0396 15.7499 24.8515C15.8494 24.6634 15.9016 24.4516 15.9015 24.2363V15.3944C15.9018 14.7684 16.1229 14.1647 16.522 13.7005L25.1908 3.60942C25.3462 3.42824 25.4483 3.20356 25.4849 2.96255C25.5216 2.72155 25.491 2.47454 25.3971 2.2514C25.3032 2.02826 25.1498 1.83855 24.9556 1.7052C24.7613 1.57185 24.5346 1.50058 24.3027 1.5H2.69973C2.46763 1.50009 2.24053 1.57101 2.04594 1.70417C1.85135 1.83733 1.69763 2.02701 1.60339 2.25025C1.50914 2.47349 1.47843 2.7207 1.51496 2.96193C1.55149 3.20317 1.6537 3.42808 1.80921 3.60942L10.4804 13.7005C10.8795 14.1647 11.1006 14.7684 11.1009 15.3944V22.9732Z" stroke="white" stroke-width="1.5" stroke-linecap="round" stroke-linejoin="round"/>
</svg>
