<svg width="48" height="50" viewBox="0 0 48 50" fill="none" xmlns="http://www.w3.org/2000/svg">
<path d="M41.1569 15.6751C42.0453 16.5775 44.7101 15.6751 46.4866 15.6751C48.2631 14.7727 46.4866 5.74865 46.4866 0.935829C41.1569 0.935829 32.2742 -1.16979 31.3858 0.935829C31.3858 2.74064 30.4977 5.14705 31.3858 6.35028C32.2742 7.55348 34.643 6.35028 36.4195 6.35028C-3.26974e-06 45.4545 0 40.6417 0 43.349C2.36875 48.7634 -0.888279 45.4545 4.44141 47.861C6.81014 47.861 2.07266 47.861 41.1569 10.5615C41.1569 12.6671 40.2687 14.4719 41.1569 15.6751ZM31.9781 49.0641C33.1625 51.1698 42.3413 49.0641 47.0787 49.0641C47.0787 44.2514 49.1515 35.2272 47.0787 34.3248C45.3022 34.3248 42.9334 33.4224 41.7492 34.3248C40.5648 35.2272 41.7492 37.0321 41.7492 39.4384C27.2405 26.2033 30.7937 26.2033 29.3133 26.2033C27.8328 26.2033 24.8719 29.5121 24.8719 31.016C24.8719 32.52 24.8719 28.6097 37.6039 43.9505C35.8272 43.9505 33.4586 43.0481 32.2742 43.9505C31.0898 44.8529 32.2742 46.9586 31.9781 49.0641ZM1.48047 6.04947C1.48047 6.95188 1.48047 4.84626 17.1734 21.6912C18.6538 21.3903 20.4305 19.2848 21.0226 17.7807C4.4414 2.13904 6.51405 2.13903 5.32968 2.13903C0.888279 4.54545 3.84921 1.53743 1.48047 6.04947Z" fill="#5533FF"/>
</svg>
